<?xml version="1.0" standalone="no"?><!DOCTYPE svg PUBLIC "-//W3C//DTD SVG 1.1//EN" "http://www.w3.org/Graphics/SVG/1.1/DTD/svg11.dtd"><svg t="1729219954081" class="icon" viewBox="0 0 1024 1024" version="1.1" xmlns="http://www.w3.org/2000/svg" p-id="7741" width="128" height="128" xmlns:xlink="http://www.w3.org/1999/xlink"><path d="M667.093333 90.624l-18.261333 46.506667-46.293333 18.304c-35.413333 13.994667-35.413333 64.170667 0 78.165333l46.293333 18.346667 18.261333 46.464c13.952 35.498667 64.128 35.498667 78.08 0l18.261334-46.506667 46.250666-18.304c35.413333-13.994667 35.413333-64.170667 0-78.165333l-46.250666-18.346667-18.261334-46.464c-13.952-35.498667-64.128-35.498667-78.08 0z m39.04 17.322667l17.706667 45.013333c4.266667 10.837333 12.8 19.413333 23.594667 23.722667l45.098666 17.834666-45.098666 17.877334a41.984 41.984 0 0 0-23.594667 23.68l-17.706667 45.013333-17.706666-45.013333a41.984 41.984 0 0 0-23.637334-23.68l-45.098666-17.877334 45.098666-17.834666a41.984 41.984 0 0 0 23.637334-23.722667l17.706666-45.013333zM141.397333 141.397333a155.008 155.008 0 0 1 219.264 0l521.941334 521.941334a155.008 155.008 0 0 1-219.264 219.264L141.397333 360.661333a155.008 155.008 0 0 1 0-219.264z m173.994667 45.226667a91.008 91.008 0 1 0-128.725333 128.768L254.293333 383.061333l128.725334-128.725333-67.669334-67.669333z m393.216 650.709333L299.605333 428.373333l128.725334-128.725333 409.002666 409.002667a91.008 91.008 0 1 1-128.725333 128.725333zM910.165333 381.738667l6.570667 16.768 16.725333 6.613333c35.413333 13.994667 35.413333 64.170667 0 78.165333l-16.725333 6.613334-6.570667 16.810666c-13.952 35.498667-64.128 35.498667-78.08 0l-6.613333-16.810666-16.682667-6.613334c-35.413333-13.994667-35.413333-64.170667 0-78.165333l16.682667-6.613333 6.613333-16.768c13.952-35.541333 64.128-35.541333 78.08 0z m-39.04 17.28l-6.016 15.36c-4.266667 10.794667-12.8 19.413333-23.637333 23.68l-15.530667 6.144 15.530667 6.144c10.837333 4.266667 19.370667 12.885333 23.637333 23.68l5.973334 15.36 6.058666-15.36c4.266667-10.794667 12.8-19.370667 23.637334-23.68l15.530666-6.144-15.530666-6.144a41.984 41.984 0 0 1-23.637334-23.68l-6.016-15.36zM199.168 645.290667l-6.613333 16.810666-16.682667 6.570667c-35.413333 14.037333-35.413333 64.213333 0 78.208l16.682667 6.613333 6.613333 16.768c13.952 35.541333 64.128 35.541333 78.08 0l6.613333-16.768 16.64-6.613333c35.413333-13.994667 35.413333-64.170667 0-78.165333l-16.64-6.613334-6.613333-16.810666c-13.952-35.498667-64.128-35.498667-78.08 0z m33.024 32.64l5.973333-15.36 6.058667 15.36c4.266667 10.837333 12.8 19.413333 23.637333 23.722666l15.530667 6.144-15.530667 6.144a41.984 41.984 0 0 0-23.637333 23.68l-6.016 15.36-6.016-15.36a41.984 41.984 0 0 0-23.637333-23.68l-15.530667-6.144 15.530667-6.144a41.984 41.984 0 0 0 23.637333-23.722666z" p-id="7742" fill="#858585"></path></svg>